<svg width="18" height="18" viewBox="0 0 18 18" fill="none" xmlns="http://www.w3.org/2000/svg">
<path fill-rule="evenodd" clip-rule="evenodd" d="M16.1583 4.66942C16.2256 4.77158 16.2556 4.89384 16.2432 5.01555C16.2308 5.13726 16.1768 5.25097 16.0903 5.33747L9.57771 11.8493C9.51109 11.9159 9.42796 11.9636 9.33685 11.9875L6.62427 12.6959C6.53461 12.7193 6.44038 12.7188 6.35096 12.6945C6.26153 12.6703 6.18001 12.623 6.11448 12.5575C6.04896 12.492 6.00171 12.4104 5.97743 12.321C5.95315 12.2316 5.95267 12.1374 5.97606 12.0477L6.68449 9.33584C6.70517 9.25443 6.74418 9.17883 6.79855 9.11481L13.3352 2.58239C13.4348 2.48289 13.5699 2.427 13.7107 2.427C13.8515 2.427 13.9865 2.48289 14.0862 2.58239L16.0903 4.58582C16.1157 4.61133 16.1385 4.63934 16.1583 4.66942ZM14.9632 4.96129L13.7107 3.7095L7.67629 9.74389L7.23352 11.4392L8.92879 10.9964L14.9632 4.96129Z" fill="black"/>
<path d="M14.8733 12.9893C15.0669 11.3344 15.1288 9.66666 15.0582 8.00194C15.0567 7.96272 15.0632 7.92361 15.0775 7.88704C15.0917 7.85047 15.1134 7.81724 15.1411 7.78941L15.8382 7.09232C15.8572 7.07316 15.8814 7.05992 15.9078 7.05417C15.9342 7.04842 15.9617 7.05042 15.987 7.05992C16.0123 7.06942 16.0343 7.08602 16.0504 7.10773C16.0664 7.12944 16.0759 7.15533 16.0776 7.18229C16.2088 9.15968 16.159 11.1449 15.9289 13.1133C15.7617 14.5457 14.6112 15.6686 13.1851 15.828C10.7094 16.1021 8.21098 16.1021 5.73527 15.828C4.30991 15.6686 3.15872 14.5457 2.99153 13.1133C2.69781 10.6022 2.69781 8.06541 2.99153 5.55432C3.15872 4.12188 4.3092 2.99902 5.73527 2.83962C7.61429 2.63126 9.50746 2.58079 11.3949 2.68873C11.4219 2.69067 11.4478 2.70031 11.4695 2.71651C11.4912 2.73271 11.5078 2.75478 11.5174 2.78013C11.5269 2.80547 11.529 2.83302 11.5233 2.85951C11.5177 2.886 11.5046 2.91032 11.4856 2.92959L10.7821 3.63235C10.7546 3.65981 10.7217 3.68132 10.6855 3.69558C10.6493 3.70983 10.6106 3.71652 10.5717 3.71524C8.9967 3.6617 7.41988 3.72207 5.85358 3.89589C5.39589 3.94655 4.96865 4.15002 4.64086 4.47344C4.31307 4.79685 4.10388 5.22133 4.04709 5.6783C3.76304 8.10701 3.76304 10.5606 4.04709 12.9893C4.10388 13.4462 4.31307 13.8707 4.64086 14.1941C4.96865 14.5176 5.39589 14.721 5.85358 14.7717C8.23036 15.0373 10.69 15.0373 13.0675 14.7717C13.5252 14.721 13.9524 14.5176 14.2802 14.1941C14.608 13.8707 14.8165 13.4462 14.8733 12.9893Z" fill="black"/>
</svg>
